<svg xmlns="http://www.w3.org/2000/svg" xmlns:xlink="http://www.w3.org/1999/xlink" xml:space="preserve" width="1200"
     height="675"><defs><clipPath id="e" clipPathUnits="userSpaceOnUse"><path d="M-733.248 1344.64h2000v-2000h-2000Z"/></clipPath><clipPath
        id="f" clipPathUnits="userSpaceOnUse"><path d="M-899.95 1288.586h2000v-2000h-2000Z"/></clipPath><clipPath id="g"
                                                                                                                  clipPathUnits="userSpaceOnUse"><path d="M-964.751 1321.848h2000v-2000h-2000Z"/></clipPath><clipPath
        id="h" clipPathUnits="userSpaceOnUse"><path d="M-1070.232 1335.1h2000v-2000h-2000Z"/></clipPath><clipPath id="i"
                                                                                                                  clipPathUnits="userSpaceOnUse"><path d="M-1157.162 1266.985h2000v-2000h-2000Z"/></clipPath><clipPath
        id="j" clipPathUnits="userSpaceOnUse"><path d="M-1280.668 1240.35h2000v-2000h-2000Z"/></clipPath><clipPath
        id="l" clipPathUnits="userSpaceOnUse"><path d="M-378.162 19.488H0v-38.977h-378.16Z"/></clipPath><clipPath id="k"
                                                                                                                  clipPathUnits="userSpaceOnUse"><path d="M0 0h2666.667v2666.667H0Z"/></clipPath><clipPath
        id="m" clipPathUnits="userSpaceOnUse"><path d="M-1129.5 974.858h2000v-2000h-2000Z"/></clipPath><clipPath id="n"
                                                                                                                 clipPathUnits="userSpaceOnUse"><path d="M-1129.504 974.858h2000v-2000h-2000Z"/></clipPath><clipPath
        id="o" clipPathUnits="userSpaceOnUse"><path d="M-999.994 1007.54h2000v-2000h-2000Z"/></clipPath><clipPath id="p"
                                                                                                                  clipPathUnits="userSpaceOnUse"><path d="M-1072.26 935.286h2000v-2000h-2000Z"/></clipPath><clipPath
        id="r" clipPathUnits="userSpaceOnUse"><path d="M-112.305 70.206H0V-72.253h-112.306Z"/></clipPath><clipPath
        id="q" clipPathUnits="userSpaceOnUse"><path d="M0 0h2666.667v2666.667H0Z"/></clipPath><clipPath id="t"
                                                                                                        clipPathUnits="userSpaceOnUse"><path d="M-159.203 392.302H0V-.486h-159.202Z"/></clipPath><clipPath
        id="s" clipPathUnits="userSpaceOnUse"><path d="M0 0h2666.667v2666.667H0Z"/></clipPath><clipPath id="u"
                                                                                                        clipPathUnits="userSpaceOnUse"><path d="M-1147.152 697.635h2000v-2000h-2000Z"/></clipPath><clipPath
        id="v" clipPathUnits="userSpaceOnUse"><path d="M-1147.152 697.635h2000v-2000h-2000Z"/></clipPath><clipPath
        id="w" clipPathUnits="userSpaceOnUse"><path d="M-971.378 729.878h2000v-2000h-2000Z"/></clipPath><clipPath id="x"
                                                                                                                  clipPathUnits="userSpaceOnUse"><path d="M-1141.285 726.862h2000v-2000h-2000Z"/></clipPath><clipPath
        id="y" clipPathUnits="userSpaceOnUse"><path d="M-973.156 648.712h2000v-2000h-2000Z"/></clipPath><clipPath id="A"
                                                                                                                  clipPathUnits="userSpaceOnUse"><path d="M-280.757 55.235H.028v-85.95h-280.785Z"/></clipPath><clipPath
        id="z" clipPathUnits="userSpaceOnUse"><path d="M0 0h2666.667v2666.667H0Z"/></clipPath><clipPath id="C"
                                                                                                        clipPathUnits="userSpaceOnUse"><path d="M-96.65 76.435h210.041v-99.56h-210.04Z"/></clipPath><clipPath
        id="B" clipPathUnits="userSpaceOnUse"><path d="M0 0h2666.667v2666.667H0Z"/></clipPath><clipPath id="D"
                                                                                                        clipPathUnits="userSpaceOnUse"><path d="M-866.4 1004.617h2000v-2000h-2000Z"/></clipPath><clipPath
        id="E" clipPathUnits="userSpaceOnUse"><path d="M-1122.1 1004.617h2000v-2000h-2000Z"/></clipPath><clipPath id="F"
                                                                                                                  clipPathUnits="userSpaceOnUse"><path d="M-1061.896 823.118h2000v-2000h-2000Z"/></clipPath><clipPath
        id="G" clipPathUnits="userSpaceOnUse"><path d="M-966.44 823.118h2000v-2000h-2000Z"/></clipPath><clipPath id="H"
                                                                                                                 clipPathUnits="userSpaceOnUse"><path d="M-1052.378 818.528h2000v-2000h-2000Z"/></clipPath><clipPath
        id="I" clipPathUnits="userSpaceOnUse"><path d="M-1043.069 830.528h2000v-2000h-2000Z"/></clipPath><clipPath
        id="J" clipPathUnits="userSpaceOnUse"><path d="M-1038.517 822.149h2000v-2000h-2000Z"/></clipPath><clipPath
        id="K" clipPathUnits="userSpaceOnUse"><path d="M-938.302 818.528h2000v-2000h-2000Z"/></clipPath><clipPath id="L"
                                                                                                                  clipPathUnits="userSpaceOnUse"><path d="M-947.613 830.528h2000v-2000h-2000Z"/></clipPath><clipPath
        id="M" clipPathUnits="userSpaceOnUse"><path d="M-952.165 822.149h2000v-2000h-2000Z"/></clipPath><linearGradient
        id="b"><stop offset="0" style="stop-color:#7f52ff;stop-opacity:1"/>
    <stop offset="1" style="stop-color:#e24462;stop-opacity:1"/></linearGradient><linearGradient xlink:href="#b" id="d"
                                                                                                 x1="174.067"
                                                                                                 x2="1022.596"
                                                                                                 y1="-88.433"
                                                                                                 y2="760.096"
                                                                                                 gradientUnits="userSpaceOnUse"/></defs>
    href=&quot;data:image/svg+xml;utf8,%3Csvg xmlns=%22http://www.w3.org/2000/svg%22 width=%22100%22 height=%22100%22
    viewBox=%220 0 100 100%22%3E%3Ccircle cx=%2250%22 cy=%2250%22 r=%2240%22
    fill=%22%230A74DA%22%3E%3C/circle%3E%3C/svg%3E&quot;
    preserveAspectRatio=&quot;none&quot; clip-path=&quot;url(#satori_cp-id-0-0)&quot; mask=&quot;url(#satori_om-id-0-0)&quot;/&gt;<path
            d="M-1.669-1.669h1200v675h-1200z" style="fill:url(#d)"/>
    <path d="M0 0q-6.758 4.772-11.132 13.649t-4.373 20.54c0 23.324 3.62 45.496 10.867 66.524q12.456 36.838 26.37 57.513 13.916 20.673 26.637 28.624 3.975 2.383 11.926 4.77 7.951 2.385 15.902 2.385c2.824 0 6.096-.265 9.807-.795q11.131-2.917 21.865-10.071 10.734-7.158 10.734-15.637 0-4.241-4.771-8.614-4.773-4.373-9.806-4.373-2.652 0-3.975 1.59-5.039 7.156-10.072 10.734-5.035 3.578-12.192 3.578-19.35 0-34.719-23.985-15.376-23.99-24.383-56.055-9.014-32.07-10.336-54.332 0-8.484 2.384-12.457c1.591-2.651 4.415-3.976 8.482-3.976q10.068 0 23.721 7.819 13.646 7.815 22.66 21.866c7.594 14.311 11.396 23.939 11.396 28.889q0 4.238-3.975 4.24-13.256-.002-19.082 1.06c-3.889.703-6.453 2.385-7.687 5.035q-3.446 1.058-3.445 5.301c0 4.063 1.764 7.065 5.301 9.011q5.297 2.915 18.552 2.916 11.13-.267 18.155-2.253 7.02-1.987 11.264-7.951 4.238-5.964 4.24-17.095 0-4.77-.794-8.746-5.038-22.797-20.143-39.755C69.307 18.64 58.217 10.03 46.116 4.108 34.012-1.81 23.364-4.771 14.18-4.771Q6.757-4.771 0 0"
          clip-path="url(#e)" style="fill:#000;fill-opacity:1;fill-rule:nonzero;stroke:none"
          transform="matrix(.7493 0 0 -.7493 38.729 599.368)"/>
    <path d="M0 0q2.25 4.634 6.494 16.3 1.59 2.385 1.59 9.541c0 4.24-.621 6.626-1.855 7.156q-1.33 1.058-3.181 1.06-2.386-.002-7.686-3.71c-6.186-5.301-11.355-10.826-15.505-16.565q-6.229-8.615-8.613-19.745-.266-1.062-.265-3.181 0-9.011 6.361-9.01 6.092-.001 15.372 9.01Q-2.256-4.641 0 0m-39.357-40.418q-1.858 1.056-5.301 3.976-5.303 5.566-8.216 11.529c-1.946 3.976-2.65 7.462-2.12 10.469q.794 1.852.662 3.711c-.091 1.233-.132 2.028-.132 2.384-.709.704-1.06 1.193-1.06 1.458s.173.531.53.795q.527.396.795.928 1.589-.002 1.06 2.915-.532 2.12 1.855 9.276c1.591 4.771 3.62 9.186 6.096 13.252q2.912 4.772 8.614 11.927c3.797 4.771 7.197 8.39 10.204 10.866C-17.537 50.663-9.587 55.26-2.518 56.85q5.3 1.324 10.336 1.325 7.685-.002 11.927-4.24 5.828-2.387 8.482-6.891c1.763-3.007 2.915-6.982 3.445-11.927q.263-1.59.265-5.301-.001-19.615-14.842-40.815-6.099-8.747-12.192-14.047c-4.066-3.536-9.01-7.068-14.841-10.601q-4.773-3.183-10.072-4.241-5.305-1.062-14.311-1.59-3.183-.001-5.036 1.06"
          clip-path="url(#f)" style="fill:#000;fill-opacity:1;fill-rule:nonzero;stroke:none"
          transform="matrix(.7493 0 0 -.7493 163.64 557.366)"/>
    <path d="M0 0c-1.416 1.412-2.252 2.56-2.518 3.445a5.4 5.4 0 0 0-.132 2.651c2.121 0 3.354.352 3.711 1.06 0 .53.306.882.927 1.06q.926.261 1.988 0 6.89-.532 19.214 7.421 12.325 7.949 26.637 21.203 7.417 9.539 10.071 13.649c1.764 2.738 2.651 4.99 2.651 6.758q-.001 1.324-1.325 3.976-1.329 2.119-4.242 2.12c-3.179 0-7.511-1.768-12.986-5.3q-11.398-7.158-18.287-13.119-6.896-5.964-12.722-13.915a201 201 0 0 0-6.493-8.083q-3.051-3.58-4.108-4.904c0-.708-1.019-1.589-3.048-2.65q-3.05-1.59-5.168-1.59-1.329.529-3.048 2.12-1.727 1.588-1.988 3.71-.533.53-2.253 1.723c-1.152.796-1.987 1.723-2.518 2.783-.53 1.061-.795 2.294-.795 3.711q-.001 3.974 2.651 13.517a367 367 0 0 0 5.432 21.599q3.046 10.734 4.109 11.794.26.53 1.192 2.916.927 2.385.928 5.035.53 2.385 1.723 5.434Q.795 91.168.796 91.702q1.324 1.058 8.48 20.938 0 1.056 5.831 14.047 8.478 19.876 10.602 25.443 1.324 2.119 4.505 7.685.526.796 2.253 3.579 1.72 2.78 2.783 3.313 1.852.529 8.084-2.65c4.149-2.12 6.845-4.155 8.083-6.096q.263-.535.663-1.193.398-.664.398-1.457c0-.887-.49-2.477-1.458-4.771a162 162 0 0 0-3.181-7.023c-1.151-2.386-1.987-4.2-2.518-5.434l-7.685-15.902Q26.504 97.796 18.553 74.739c-1.59-4.948-3.007-8.924-4.24-11.926l-1.326-5.831 6.891 7.686q4.771 4.77 11.927 9.807c2.12 1.412 5.209 3.002 9.276 4.77q6.095 2.647 8.481 3.181 8.478 2.119 14.577 2.12 9.804-.001 18.022-14.047 2.385-4.243 2.385-10.866 0-4.772-1.324-9.541-1.329-4.772-3.447-8.482-1.326-1.061-2.65-2.783-1.327-1.725-1.325-2.782-.268-1.59-4.505-7.156a174 174 0 0 0-9.276-11.131q-6.895-7.157-18.156-14.313c-7.511-4.77-13.74-8.042-18.684-9.805q-1.591-.27-5.963-.928c-2.916-.443-4.995-.841-6.229-1.193Q3.18-7.424 0 0"
          clip-path="url(#g)" style="fill:#000;fill-opacity:1;fill-rule:nonzero;stroke:none"
          transform="matrix(.7493 0 0 -.7493 212.195 582.29)"/>
    <path d="M0 0q-5.568 0-9.276 6.361c-2.477 4.241-3.711 9.628-3.711 16.167q-.001 5.3 1.06 10.336 2.915 7.684 2.915 11.132.795 5.034 5.434 18.154 4.634 13.118 5.963 15.77 1.058-.002 1.855 1.724.796 1.718.795 3.842-.002 2.383.928 4.904.925 2.514 1.988 3.577c0 .53.219 1.499.662 2.916q.661 2.119.663 2.915-.001.528.662 1.988c.44.969.664 1.723.664 2.252q4.237 8.212 14.841 36.973 10.6 28.755 10.601 31.936 0 2.119 1.591 3.976 1.587 1.853 3.71 1.855.794.796 3.446 1.193 2.648.397 4.24.397l4.24-4.24q2.915-2.652 4.506-4.771 1.59-2.123 1.59-5.036c0-3.179-.575-6.319-1.722-9.408q-1.727-4.64-9.939-21.865-.533-1.33-4.24-9.542-2.652-5.303-2.651-6.096c0-.529-.356-1.636-1.06-3.312a52 52 0 0 1-1.856-5.168q-2.124-4.242-6.757-14.975c-3.094-7.156-4.639-11.09-4.639-11.794q0-2.918-1.325-4.241-.798 0-1.06-1.192-.267-1.194-.265-1.723-.002-2.654-4.241-14.047l-2.385-7.686c-3.359-11.488-5.699-19.877-7.024-25.178q-1.987-7.951-1.987-13.517-.002-5.833-1.856-9.541Q4.504 1.327 2.12.266C1.59.092.882 0 0 0"
          clip-path="url(#h)" style="fill:#000;fill-opacity:1;fill-rule:nonzero;stroke:none"
          transform="matrix(.7493 0 0 -.7493 291.233 592.219)"/>
    <path d="M0 0q2.647 1.323 8.083 6.758 5.43 5.43 5.698 7.554c0 1.764-.754 3.221-2.253 4.373q-2.254 1.72-6.228 2.252H2.385q-3.448 0-9.939-5.698Q-14.05 9.537-18.818 2.12q.262-1.328 3.975-2.253 3.71-.93 7.951-.928Q-1.858-1.061 0 0m-40.551-56.452q-9.278 8.477-9.276 24.118 0 6.093.795 13.517.528 6.36 5.169 17.492 4.633 11.13 12.721 21.732 8.08 10.6 18.95 15.638c3.354 1.59 6.182 2.691 8.481 3.312q3.44.927 7.951.928 10.865 0 17.625-3.975c4.505-2.651 7.686-5.658 9.541-9.011q2.783-5.04 2.782-8.746v-2.121q0-3.181-3.709-11.661-3.715-8.486-11.794-15.903-8.086-7.42-20.806-8.216-6.36 0-12.324 1.193t-7.553 1.193c-2.65 0-4.332-.974-5.036-2.916q-1.061-2.918-1.06-9.806.793-7.423 4.108-10.337c2.207-1.946 5.433-2.915 9.673-2.915q3.18 0 7.421 1.856 4.238 2.117 10.072 6.625 3.18 2.648 5.036 3.711 1.851 1.058 4.505 1.06 2.386 0 5.566-3.18t3.445-6.096q-.533-3.18-5.831-9.541c-3.536-4.241-8.129-8.043-13.781-11.396q-8.485-5.038-18.288-5.037-15.107-.002-24.383 8.482"
          clip-path="url(#i)" style="fill:#000;fill-opacity:1;fill-rule:nonzero;stroke:none"
          transform="matrix(.7493 0 0 -.7493 356.37 541.18)"/>
    <path d="M0 0q1.59-2.522 1.59-5.963c0-3.711-1.416-8.13-4.24-13.252q-2.124-6.098-4.639-11.396c-1.681-3.537-2.961-5.831-3.843-6.891l-6.096-14.047q-3.977-8.748-9.806-20.408c-4.771-9.897-8.129-17.227-10.071-21.998l-3.446-5.566q-13.254-21.2-20.407-29.683-5.832-5.297-13.782-10.999-7.951-5.698-12.722-6.493c-3.358-.704-7.068-1.061-11.131-1.061-7.247 0-13.691 1.238-19.347 3.711-5.654 2.477-8.92 5.479-9.807 9.011l-.53 3.181q0 4.507 3.578 7.023c2.386 1.682 4.994 2.518 7.818 2.518 1.769 0 3.094-.439 3.976-1.326q.533-.261 4.241-2.915c2.472-1.764 5.83-2.65 10.071-2.65q11.925.001 23.322 15.637 11.131 17.76 16.963 28.358-5.305 3.18-10.337 10.734c-3.358 5.037-4.861 8.523-4.504 10.469v2.915q-2.125 0-3.048 7.951c-.622 5.301-.928 11.836-.928 19.614q-.002 12.72.529 17.756 1.056 4.238 1.194 10.469.13 6.226.131 8.084-.267 3.71 1.458 6.493 1.722 2.782 3.314 3.843 3.441 1.324 5.565 1.325c8.125 0 12.192-8.659 12.192-25.973q-.002-5.04-.265-7.686c-.356-8.481-.53-14.49-.53-18.022q0-20.412 5.565-26.503 2.386 5.565 3.976 7.95 3.708 7.684 4.24 9.807.53 1.852 2.916 6.095l3.445 7.157q.527 1.589 3.446 10.203 2.912 8.61 5.831 13.915a542 542 0 0 0 3.18 6.228q2.117 4.107 3.446 5.963 1.323 1.851 2.915 2.385 2.119 1.853 4.506 1.855 2.383 0 5.035-1.589Q-1.593 2.515 0 0"
          clip-path="url(#j)" style="fill:#000;fill-opacity:1;fill-rule:nonzero;stroke:none"
          transform="matrix(.7493 0 0 -.7493 448.913 521.222)"/>
    <g clip-path="url(#k)" opacity=".2" transform="matrix(.56198 0 0 .56198 -510.697 -408.177)"><path d="M0 0c0-10.764-84.654-19.489-189.081-19.489S-378.161-10.764-378.161 0s84.654 19.488 189.08 19.488S0 10.764 0 0" clip-path="url(#l)" style="fill:#000;fill-opacity:1;fill-rule:nonzero;stroke:none" transform="matrix(1.33333 0 0 -1.33333 1585.44 1449.31)"/></g>
    <path d="M0 0c-17.11-71.19-61.13-107.24-130.86-107.24-1.41 0-2.85.01-4.28.031h-.21c-63.74-1.3-106.64 26.629-127.84 83.149-2.82 7.52-5.26 15.54-7.31 24.06-7.79 32.39-7.87 67.64-.23 101.95a499 499 0 0 0 6.12 24.571c28.48 102.699 77.44 140.169 105.34 153.54 15.27 7.309 32.78 7.309 48.04 0C-81.2 265.67-26.79 223.39.24 101.95 7.88 67.64 7.79 32.39 0 0m10.09 104.14c-27.96 125.61-85.27 169.84-116.95 185.02-18.04 8.651-38.73 8.651-56.78 0-27.29-13.08-73.62-47.72-103.81-137.42-4.84-14.4-9.27-30.219-13.14-47.6-7.96-35.79-7.88-72.619.28-106.5 2.39-9.93 5.3-19.24 8.74-27.92 23.12-58.42 69.74-88.36 136.32-87.019 1.44-.031 2.85-.04 4.28-.04 74.05 0 122.69 39.67 140.8 114.979 8.14 33.881 8.24 70.7.26 106.5"
          clip-path="url(#m)" style="fill:#000;fill-opacity:1;fill-rule:nonzero;stroke:none"
          transform="matrix(.7493 0 0 -.7493 335.642 322.288)"/>
    <path d="M0 0c-17.117-71.193-61.133-107.244-130.861-107.244-1.414 0-2.853.013-4.279.038h-.215C-207.57-108.683-253.038-72.632-270.507 0c-7.789 32.39-7.865 67.646-.227 101.955 27.038 121.431 81.442 163.717 111.459 178.107 15.273 7.309 32.781 7.309 48.043 0C-81.203 265.672-26.798 223.386.24 101.955 7.876 67.646 7.788 32.39 0 0"
          clip-path="url(#n)" style="fill:#fff;fill-opacity:1;fill-rule:nonzero;stroke:none"
          transform="matrix(.7493 0 0 -.7493 335.645 322.289)"/>
    <path d="M0 0c-39.838 0-72.253 32.416-72.253 72.253S-39.838 144.506 0 144.506c39.85 0 72.266-32.415 72.266-72.253S39.85 0 0 0m0 154.604c-45.404 0-82.352-36.947-82.352-82.351 0-45.417 36.948-82.352 82.352-82.352 45.417 0 82.364 36.935 82.364 82.352 0 45.404-36.947 82.351-82.364 82.351"
          clip-path="url(#o)" style="fill:#000;fill-opacity:1;fill-rule:nonzero;stroke:none"
          transform="matrix(.7493 0 0 -.7493 238.603 346.776)"/>
    <path d="M0 0c0-39.837-32.416-72.253-72.266-72.253-39.838 0-72.253 32.416-72.253 72.253s32.415 72.253 72.253 72.253C-32.416 72.253 0 39.838 0 0"
          clip-path="url(#p)" style="fill:#ffab16;fill-opacity:1;fill-rule:nonzero;stroke:none"
          transform="matrix(.7493 0 0 -.7493 292.752 292.637)"/>
    <g clip-path="url(#q)" opacity=".3" transform="matrix(.56198 0 0 .56198 -510.697 -408.177)"><path d="M0 0c0-39.837-32.416-72.253-72.266-72.253-14.794 0-28.578 4.469-40.039 12.143a71.7 71.7 0 0 1 17.053-2.045c39.85 0 72.266 32.416 72.266 72.253 0 25.044-12.8 47.147-32.214 60.11C-23.554 62.534 0 33.968 0 0" clip-path="url(#r)" style="fill:#fff;fill-opacity:1;fill-rule:nonzero;stroke:none" transform="matrix(1.33333 0 0 -1.33333 1429.68 1247.048)"/></g>
    <g clip-path="url(#s)" opacity=".2" transform="matrix(.56198 0 0 .56198 -510.697 -408.177)"><path d="M0 0c-4.431-.316-8.988-.48-13.658-.48-1.414 0-2.853.012-4.279.038h-.214c-72.216-1.477-117.683 34.574-135.153 107.206-7.789 32.39-7.864 67.645-.227 101.954 27.038 121.432 81.442 163.718 111.459 178.108 13.304 6.362 28.313 7.183 42.047 2.462a55 55 0 0 1-6.009-2.462c-30.017-14.39-84.421-56.676-111.459-178.108-7.637-34.309-7.562-69.564.227-101.954C-101.286 40.316-61.877 4.506 0 0" clip-path="url(#t)" style="fill:#000;fill-opacity:1;fill-rule:nonzero;stroke:none" transform="matrix(1.33333 0 0 -1.33333 1349.734 1442.163)"/></g>
    <path d="M0 0c-.439-9.159-3.544-19.55-8.798-29.532-.432-.845-.894-1.666-1.355-2.5a91 91 0 0 0-4.469-7.134 60 60 0 0 0-1.746-2.386c-8.31-10.847-19.603-18.115-32.816-21.102-3.374-.771-6.92-1.238-10.539-1.417l-98.572-8.413c18.328 11.185 28.958 22.947 33.46 28.681 4.987 6.331 9.92 11.562 15.091 15.989 3.946 3.386 7.977 6.347 11.993 8.786 20.699 12.695 35.134 8.915 35.684 8.762L-58.884.456c-.782.227-19.473 5.503-44.702-9.952-4.503-2.742-9.033-6.049-13.442-9.835-5.725-4.906-11.153-10.651-16.585-17.563-5.794-7.356-22.758-25.73-55.47-38.227l-.718-.257a161 161 0 0 0-12.69-4.225c-5.002-1.46-9.998-2.976-14.994-4.492-14.022-4.251-28.52-8.65-42.949-11.693-6.128-1.296-11.411-2.07-16.129-2.349-12.073-.707-21.053 1.801-27.419 7.656-6.921 6.344-11.044 14.397-12.151 23.03a38 38 0 0 0 .311 11.87c.624 3.463 1.708 6.946 3.275 10.38 12.693 27.859 38.906 51.56 80.166 72.472 17.448 8.848 36.212 15.711 55.762 20.41l.07.007.245.068c.069.021.138.028.206.05 11.413 2.73 23.089 4.7 34.869 5.924a281 281 0 0 0 24.464 1.46c30.55.463 74.56-1.846 103.889-27.208C-4.222 20.499.461 10.299 0 0m-5.568 36.437C-37.782 64.293-84.557 66.863-116.94 66.35c-19.813-.289-39.523-2.631-58.607-6.945a130 130 0 0 1-3.347-.769 269 269 0 0 1-8.726-2.24 7 7 0 0 1-.532-.153 260 260 0 0 1-10.72-3.192c-13.357-4.294-26.275-9.582-38.561-15.801-43.608-22.11-71.506-47.56-85.285-77.806-9.343-20.503-4.964-43.33 11.166-58.154 8.723-8.011 20.373-11.477 35.657-10.592q1.927.117 3.969.328c4.209.437 8.765 1.192 13.808 2.249 14.895 3.148 29.625 7.613 43.879 11.93 4.954 1.511 9.91 3.009 14.871 4.451a181 181 0 0 1 12.802 4.237l127.468 10.881c4.248.203 8.415.776 12.38 1.679 16.932 3.809 31.189 13.505 41.268 28.004a107 107 0 0 1 5.024 8.006c4.901 8.654 10.889 22.11 11.588 37.011.621 13.756-5.468 27.222-16.73 36.963"
          clip-path="url(#u)" style="fill:#000;fill-opacity:1;fill-rule:nonzero;stroke:none"
          transform="matrix(.7493 0 0 -.7493 348.869 114.564)"/>
    <path d="M0 0c-.439-9.159-3.544-19.55-8.798-29.532l-106.457-11.057 1.154-11.115 97.733 10.152c-8.31-10.847-19.603-18.115-32.816-21.102-3.374-.771-6.92-1.238-10.539-1.417l-98.572-8.413c18.328 11.185 28.958 22.947 33.46 28.681 4.987 6.331 9.92 11.562 15.091 15.989 3.946 3.386 7.977 6.347 11.993 8.786 20.699 12.695 35.134 8.915 35.684 8.762L-58.884.456c-.782.227-19.473 5.503-44.702-9.952-4.503-2.742-9.033-6.049-13.442-9.835-5.725-4.906-11.153-10.651-16.585-17.563-5.794-7.356-22.758-25.73-55.47-38.227l-.718-.257a161 161 0 0 0-12.69-4.225c-5.002-1.46-9.998-2.976-14.994-4.492-14.022-4.251-28.52-8.65-42.949-11.693-6.128-1.296-11.411-2.07-16.129-2.349-12.073-.707-21.053 1.801-27.419 7.656-6.921 6.344-11.044 14.397-12.151 23.03 7.818-2.811 20.74-6.355 37.183-6.754 4.842-.114 10.176.046 15.941.645 23.867 2.479 54.9 12.485 87.236 41.316l-7.438 8.341c-29.841-26.62-61.769-39.78-94.891-39.134-18.151.348-31.72 4.99-37.72 7.456.624 3.463 1.708 6.946 3.275 10.38 12.693 27.859 38.906 51.56 80.166 72.472 17.448 8.848 36.212 15.711 55.762 20.41l.07.007c.151.03.301.074.451.118 11.413 2.73 23.089 4.7 34.869 5.924a281 281 0 0 0 24.464 1.46c30.55.463 74.56-1.846 103.889-27.208C-4.222 20.499.461 10.299 0 0"
          clip-path="url(#v)" style="fill:#014421;fill-opacity:1;fill-rule:nonzero;stroke:none"
          transform="matrix(.7493 0 0 -.7493 348.869 114.564)"/>
    <path d="M0 0c-32.335-28.831-63.369-38.837-87.235-41.316a125 125 0 0 0-15.942-.645c-16.443.398-29.365 3.943-37.183 6.754-5.135 1.853-8.062 3.403-8.346 3.556l5.254 9.856c.044-.023 1.218-.646 3.404-1.542 5.999-2.466 19.569-7.109 37.719-7.456 33.123-.646 65.05 12.514 94.891 39.134z"
          clip-path="url(#w)" style="fill:#000;fill-opacity:1;fill-rule:nonzero;stroke:none"
          transform="matrix(.7493 0 0 -.7493 217.161 138.724)"/>
    <path d="m0 0 1.154-11.114-109.388-11.362-1.155 11.114z" clip-path="url(#x)"
          style="fill:#000;fill-opacity:1;fill-rule:nonzero;stroke:none"
          transform="matrix(.7493 0 0 -.7493 344.473 136.464)"/>
    <path d="M0 0a5.6 5.6 0 0 0-2.103-1.117 5 5 0 0 0-.451-.117l-.069-.007A5.59 5.59 0 0 0-7.875.657l-4.946 1.648c.801-2.978-.973-6.041-3.951-6.842a5.575 5.575 0 0 0-6.842 3.952l-1.262 4.713-6.892 25.656a5.59 5.59 0 0 0 2.818 6.401 5.58 5.58 0 0 0 6.852-1.352l20.546-24.35 2.21-2.621C2.657 5.514 2.35 1.985 0 0"
          clip-path="url(#y)" style="fill:#000;fill-opacity:1;fill-rule:nonzero;stroke:none"
          transform="matrix(.7493 0 0 -.7493 218.493 77.906)"/>
    <g clip-path="url(#z)" opacity=".2" transform="matrix(.56198 0 0 .56198 -510.697 -408.177)"><path d="M0 0c-.439-9.159-3.544-19.55-8.798-29.532l-11.378-1.182c2.204 6.225 3.502 12.384 3.769 18.057.461 10.299-4.221 20.498-12.876 27.983-29.329 25.361-73.338 27.67-103.888 27.207a281 281 0 0 1-24.464-1.46c-11.781-1.223-23.456-3.195-34.869-5.925a5 5 0 0 0-.452-.117l-.069-.007c-19.55-4.699-38.314-11.563-55.762-20.41-11.901-6.024-22.539-12.297-31.97-18.837 12.906 11.212 28.966 21.657 48.376 31.494 17.448 8.848 36.212 15.711 55.762 20.41l.07.007c.151.03.301.074.451.118 11.413 2.73 23.089 4.7 34.869 5.924a281 281 0 0 0 24.464 1.46c30.55.463 74.56-1.846 103.889-27.208C-4.222 20.499.461 10.299 0 0" clip-path="url(#A)" style="fill:#fff;fill-opacity:1;fill-rule:nonzero;stroke:none" transform="matrix(1.33333 0 0 -1.33333 1529.536 930.18)"/></g>
    <g clip-path="url(#B)" opacity=".2" transform="matrix(.56198 0 0 .56198 -510.697 -408.177)"><path d="m0 0-.718-.257a160 160 0 0 0-12.69-4.225 1475 1475 0 0 1-14.994-4.493c-14.022-4.25-28.52-8.649-42.949-11.692-6.128-1.297-11.411-2.07-16.128-2.35-3.281-.186-6.347-.139-9.171.143 3.708.399 7.74 1.057 12.233 2.015 14.427 3.044 28.925 7.442 42.947 11.693 4.996 1.516 9.992 3.032 14.994 4.492A161 161 0 0 1-13.785-.449l.718.257c32.712 12.497 49.676 30.871 55.469 38.227 5.433 6.912 10.86 12.657 16.586 17.563 4.409 3.786 8.938 7.092 13.441 9.835 18.959 11.616 34.219 11.516 40.964 10.658-7.504-1.032-17.097-3.854-27.896-10.466-4.503-2.743-9.033-6.05-13.442-9.835-5.725-4.906-11.153-10.652-16.585-17.563C49.676 30.871 32.712 12.497 0 0" clip-path="url(#C)" style="fill:#fff;fill-opacity:1;fill-rule:nonzero;stroke:none" transform="matrix(1.33333 0 0 -1.33333 1277.425 1030.34)"/></g>
    <path d="m0 0-8.47-.521c-3.44 8.681-6.35 17.991-8.74 27.92-8.16 33.881-8.24 70.71-.28 106.5 3.87 17.381 8.3 33.201 13.14 47.601l4.35-.63s-.85-9.741-1.51-24.59c-1.358-30.829 3.359-75.789 14.128-107.819 2.187-6.505 1.264-13.648-2.38-19.464C5.831 21.964.585 12.383-.09 5.7-.28 3.81-.28 1.89 0 0"
          clip-path="url(#D)" style="fill:#000;fill-opacity:1;fill-rule:nonzero;stroke:none"
          transform="matrix(.7493 0 0 -.7493 138.5 344.587)"/>
    <path d="m0 0 8.47-.521c3.44 8.681 6.35 17.991 8.74 27.92 8.16 33.881 8.24 70.71.28 106.5C13.62 151.28 9.19 167.1 4.35 181.5L0 180.87s.85-9.741 1.51-24.59c1.358-30.829-3.36-75.789-14.128-107.819-2.187-6.505-1.264-13.648 2.38-19.464C-5.831 21.964-.585 12.383.09 5.7.28 3.81.28 1.89 0 0"
          clip-path="url(#E)" style="fill:#000;fill-opacity:1;fill-rule:nonzero;stroke:none"
          transform="matrix(.7493 0 0 -.7493 330.097 344.587)"/>
    <path d="M0 0c0-10.512-8.522-19.035-19.034-19.035-10.513 0-19.035 8.523-19.035 19.035s8.522 19.035 19.035 19.035S0 10.513 0 0"
          clip-path="url(#F)" style="fill:#000;fill-opacity:1;fill-rule:nonzero;stroke:none"
          transform="matrix(.7493 0 0 -.7493 284.986 208.589)"/>
    <path d="M0 0c0-10.512-8.522-19.035-19.035-19.035S-38.069-10.512-38.069 0s8.522 19.035 19.034 19.035C-8.522 19.035 0 10.513 0 0"
          clip-path="url(#G)" style="fill:#000;fill-opacity:1;fill-rule:nonzero;stroke:none"
          transform="matrix(.7493 0 0 -.7493 213.461 208.589)"/>
    <path d="M0 0a5.793 5.793 0 1 0-11.586 0A5.793 5.793 0 0 0 0 0" clip-path="url(#H)"
          style="fill:#fff;fill-opacity:1;fill-rule:nonzero;stroke:none"
          transform="matrix(.7493 0 0 -.7493 277.855 205.15)"/>
    <path d="M0 0a3.828 3.828 0 1 0-7.656 0A3.828 3.828 0 0 0 0 0" clip-path="url(#I)"
          style="fill:#fff;fill-opacity:1;fill-rule:nonzero;stroke:none"
          transform="matrix(.7493 0 0 -.7493 270.879 214.141)"/>
    <path d="M0 0a2.172 2.172 0 1 0-4.344 0A2.172 2.172 0 0 0 0 0" clip-path="url(#J)"
          style="fill:#fff;fill-opacity:1;fill-rule:nonzero;stroke:none"
          transform="matrix(.7493 0 0 -.7493 267.468 207.863)"/>
    <path d="M0 0a5.793 5.793 0 1 1 11.586 0A5.793 5.793 0 0 1 0 0" clip-path="url(#K)"
          style="fill:#fff;fill-opacity:1;fill-rule:nonzero;stroke:none"
          transform="matrix(.7493 0 0 -.7493 192.377 205.15)"/>
    <path d="M0 0a3.828 3.828 0 1 1 7.656 0A3.828 3.828 0 0 1 0 0" clip-path="url(#L)"
          style="fill:#fff;fill-opacity:1;fill-rule:nonzero;stroke:none"
          transform="matrix(.7493 0 0 -.7493 199.353 214.141)"/>
    <path d="M0 0a2.172 2.172 0 1 1 4.344 0A2.172 2.172 0 0 1 0 0" clip-path="url(#M)"
          style="fill:#fff;fill-opacity:1;fill-rule:nonzero;stroke:none"
          transform="matrix(.7493 0 0 -.7493 202.764 207.863)"/>
    <text xml:space="preserve" x="412.05" y="196.432"
          style="font-weight:700;font-size:74.6667px;line-height:.8;font-family:Baskerville;-inkscape-font-specification:&quot;Baskerville Bold&quot;;text-align:start;writing-mode:lr-tb;direction:ltr;text-anchor:start;white-space:pre;inline-size:782.626;display:inline;fill:#fff;fill-opacity:1"
          transform="translate(-15.017 60.067)"><tspan x="412.05" y="196.432"><tspan style="font-family:Helvetica;-inkscape-font-specification:&quot;Helvetica Bold&quot;">Embed Rust into your </tspan></tspan>
        <tspan x="412.05" y="258.903"><tspan style="font-family:Helvetica;-inkscape-font-specification:&quot;Helvetica Bold&quot;">Kotlin Multiplatform </tspan></tspan>
        <tspan x="412.05" y="321.373"><tspan style="font-family:Helvetica;-inkscape-font-specification:&quot;Helvetica Bold&quot;">project</tspan></tspan></text></svg>