<svg xmlns="http://www.w3.org/2000/svg" width="504.214" height="659.437">
    <defs>
        <clipPath id="b" clipPathUnits="userSpaceOnUse">
            <path d="M-378.162 19.488H0v-38.977h-378.16z"/>
        </clipPath>
        <clipPath id="a" clipPathUnits="userSpaceOnUse">
            <path d="M0 0h2666.667v2666.667H0Z"/>
        </clipPath>
        <clipPath id="c" clipPathUnits="userSpaceOnUse">
            <path d="M-1129.5 974.858h2000v-2000h-2000z"/>
        </clipPath>
        <clipPath id="d" clipPathUnits="userSpaceOnUse">
            <path d="M-1129.504 974.858h2000v-2000h-2000z"/>
        </clipPath>
        <clipPath id="e" clipPathUnits="userSpaceOnUse">
            <path d="M-999.994 1007.54h2000v-2000h-2000z"/>
        </clipPath>
        <clipPath id="f" clipPathUnits="userSpaceOnUse">
            <path d="M-1072.26 935.286h2000v-2000h-2000z"/>
        </clipPath>
        <clipPath id="h" clipPathUnits="userSpaceOnUse">
            <path d="M-112.305 70.206H0V-72.253h-112.306z"/>
        </clipPath>
        <clipPath id="g" clipPathUnits="userSpaceOnUse">
            <path d="M0 0h2666.667v2666.667H0Z"/>
        </clipPath>
        <clipPath id="j" clipPathUnits="userSpaceOnUse">
            <path d="M-159.203 392.302H0V-.486h-159.202z"/>
        </clipPath>
        <clipPath id="i" clipPathUnits="userSpaceOnUse">
            <path d="M0 0h2666.667v2666.667H0Z"/>
        </clipPath>
        <clipPath id="k" clipPathUnits="userSpaceOnUse">
            <path d="M-1147.152 697.635h2000v-2000h-2000z"/>
        </clipPath>
        <clipPath id="l" clipPathUnits="userSpaceOnUse">
            <path d="M-1147.152 697.635h2000v-2000h-2000z"/>
        </clipPath>
        <clipPath id="m" clipPathUnits="userSpaceOnUse">
            <path d="M-971.378 729.878h2000v-2000h-2000z"/>
        </clipPath>
        <clipPath id="n" clipPathUnits="userSpaceOnUse">
            <path d="M-1141.285 726.862h2000v-2000h-2000z"/>
        </clipPath>
        <clipPath id="o" clipPathUnits="userSpaceOnUse">
            <path d="M-973.156 648.712h2000v-2000h-2000z"/>
        </clipPath>
        <clipPath id="q" clipPathUnits="userSpaceOnUse">
            <path d="M-280.757 55.235H.028v-85.95h-280.785z"/>
        </clipPath>
        <clipPath id="p" clipPathUnits="userSpaceOnUse">
            <path d="M0 0h2666.667v2666.667H0Z"/>
        </clipPath>
        <clipPath id="s" clipPathUnits="userSpaceOnUse">
            <path d="M-96.65 76.435h210.041v-99.56h-210.04z"/>
        </clipPath>
        <clipPath id="r" clipPathUnits="userSpaceOnUse">
            <path d="M0 0h2666.667v2666.667H0Z"/>
        </clipPath>
        <clipPath id="t" clipPathUnits="userSpaceOnUse">
            <path d="M-866.4 1004.617h2000v-2000h-2000z"/>
        </clipPath>
        <clipPath id="u" clipPathUnits="userSpaceOnUse">
            <path d="M-1122.1 1004.617h2000v-2000h-2000z"/>
        </clipPath>
        <clipPath id="v" clipPathUnits="userSpaceOnUse">
            <path d="M-1061.896 823.118h2000v-2000h-2000z"/>
        </clipPath>
        <clipPath id="w" clipPathUnits="userSpaceOnUse">
            <path d="M-966.44 823.118h2000v-2000h-2000z"/>
        </clipPath>
        <clipPath id="x" clipPathUnits="userSpaceOnUse">
            <path d="M-1052.378 818.528h2000v-2000h-2000z"/>
        </clipPath>
        <clipPath id="y" clipPathUnits="userSpaceOnUse">
            <path d="M-1043.069 830.528h2000v-2000h-2000z"/>
        </clipPath>
        <clipPath id="z" clipPathUnits="userSpaceOnUse">
            <path d="M-1038.517 822.149h2000v-2000h-2000z"/>
        </clipPath>
        <clipPath id="A" clipPathUnits="userSpaceOnUse">
            <path d="M-938.302 818.528h2000v-2000h-2000z"/>
        </clipPath>
        <clipPath id="B" clipPathUnits="userSpaceOnUse">
            <path d="M-947.613 830.528h2000v-2000h-2000z"/>
        </clipPath>
        <clipPath id="C" clipPathUnits="userSpaceOnUse">
            <path d="M-952.165 822.149h2000v-2000h-2000z"/>
        </clipPath>
    </defs>
    <g clip-path="url(#a)" opacity=".2" transform="translate(-1081.226 -815.858)">
        <path d="M0 0c0-10.764-84.654-19.489-189.081-19.489S-378.161-10.764-378.161 0s84.654 19.488 189.08 19.488S0 10.764 0 0"
              clip-path="url(#b)" style="fill:#000;fill-opacity:1;fill-rule:nonzero;stroke:none"
              transform="matrix(1.33333 0 0 -1.33333 1585.44 1449.31)"/>
    </g>
    <path d="M0 0c-17.11-71.19-61.13-107.24-130.86-107.24-1.41 0-2.85.01-4.28.031h-.21c-63.74-1.3-106.64 26.629-127.84 83.149-2.82 7.52-5.26 15.54-7.31 24.06-7.79 32.39-7.87 67.64-.23 101.95a499 499 0 0 0 6.12 24.571c28.48 102.699 77.44 140.169 105.34 153.54 15.27 7.309 32.78 7.309 48.04 0C-81.2 265.67-26.79 223.39.24 101.95 7.88 67.64 7.79 32.39 0 0m10.09 104.14c-27.96 125.61-85.27 169.84-116.95 185.02-18.04 8.651-38.73 8.651-56.78 0-27.29-13.08-73.62-47.72-103.81-137.42-4.84-14.4-9.27-30.219-13.14-47.6-7.96-35.79-7.88-72.619.28-106.5 2.39-9.93 5.3-19.24 8.74-27.92 23.12-58.42 69.74-88.36 136.32-87.019 1.44-.031 2.85-.04 4.28-.04 74.05 0 122.69 39.67 140.8 114.979 8.14 33.881 8.24 70.7.26 106.5"
          clip-path="url(#c)" style="fill:#000;fill-opacity:1;fill-rule:nonzero;stroke:none"
          transform="matrix(1.33333 0 0 -1.33333 424.773 483.953)"/>
    <path d="M0 0c-17.117-71.193-61.133-107.244-130.861-107.244-1.414 0-2.853.013-4.279.038h-.215C-207.57-108.683-253.038-72.632-270.507 0c-7.789 32.39-7.865 67.646-.227 101.955 27.038 121.431 81.442 163.717 111.459 178.107 15.273 7.309 32.781 7.309 48.043 0C-81.203 265.672-26.798 223.386.24 101.955 7.876 67.646 7.788 32.39 0 0"
          clip-path="url(#d)" style="fill:#fff;fill-opacity:1;fill-rule:nonzero;stroke:none"
          transform="matrix(1.33333 0 0 -1.33333 424.779 483.953)"/>
    <path d="M0 0c-39.838 0-72.253 32.416-72.253 72.253S-39.838 144.506 0 144.506c39.85 0 72.266-32.415 72.266-72.253S39.85 0 0 0m0 154.604c-45.404 0-82.352-36.947-82.352-82.351 0-45.417 36.948-82.352 82.352-82.352 45.417 0 82.364 36.935 82.364 82.352 0 45.404-36.947 82.351-82.364 82.351"
          clip-path="url(#e)" style="fill:#000;fill-opacity:1;fill-rule:nonzero;stroke:none"
          transform="matrix(1.33333 0 0 -1.33333 252.099 527.528)"/>
    <path d="M0 0c0-39.837-32.416-72.253-72.266-72.253-39.838 0-72.253 32.416-72.253 72.253s32.415 72.253 72.253 72.253C-32.416 72.253 0 39.838 0 0"
          clip-path="url(#f)" style="fill:#ffab16;fill-opacity:1;fill-rule:nonzero;stroke:none"
          transform="matrix(1.33333 0 0 -1.33333 348.453 431.19)"/>
    <g clip-path="url(#g)" opacity=".3" transform="translate(-1081.226 -815.858)">
        <path d="M0 0c0-39.837-32.416-72.253-72.266-72.253-14.794 0-28.578 4.469-40.039 12.143a71.7 71.7 0 0 1 17.053-2.045c39.85 0 72.266 32.416 72.266 72.253 0 25.044-12.8 47.147-32.214 60.11C-23.554 62.534 0 33.968 0 0"
              clip-path="url(#h)" style="fill:#fff;fill-opacity:1;fill-rule:nonzero;stroke:none"
              transform="matrix(1.33333 0 0 -1.33333 1429.68 1247.048)"/>
    </g>
    <g clip-path="url(#i)" opacity=".2" transform="translate(-1081.226 -815.858)">
        <path d="M0 0c-4.431-.316-8.988-.48-13.658-.48-1.414 0-2.853.012-4.279.038h-.214c-72.216-1.477-117.683 34.574-135.153 107.206-7.789 32.39-7.864 67.645-.227 101.954 27.038 121.432 81.442 163.718 111.459 178.108 13.304 6.362 28.313 7.183 42.047 2.462a55 55 0 0 1-6.009-2.462c-30.017-14.39-84.421-56.676-111.459-178.108-7.637-34.309-7.562-69.564.227-101.954C-101.286 40.316-61.877 4.506 0 0"
              clip-path="url(#j)" style="fill:#000;fill-opacity:1;fill-rule:nonzero;stroke:none"
              transform="matrix(1.33333 0 0 -1.33333 1349.734 1442.163)"/>
    </g>
    <path d="M0 0c-.439-9.159-3.544-19.55-8.798-29.532-.432-.845-.894-1.666-1.355-2.5a91 91 0 0 0-4.469-7.134 60 60 0 0 0-1.746-2.386c-8.31-10.847-19.603-18.115-32.816-21.102-3.374-.771-6.92-1.238-10.539-1.417l-98.572-8.413c18.328 11.185 28.958 22.947 33.46 28.681 4.987 6.331 9.92 11.562 15.091 15.989 3.946 3.386 7.977 6.347 11.993 8.786 20.699 12.695 35.134 8.915 35.684 8.762L-58.884.456c-.782.227-19.473 5.503-44.702-9.952-4.503-2.742-9.033-6.049-13.442-9.835-5.725-4.906-11.153-10.651-16.585-17.563-5.794-7.356-22.758-25.73-55.47-38.227l-.718-.257a161 161 0 0 0-12.69-4.225c-5.002-1.46-9.998-2.976-14.994-4.492-14.022-4.251-28.52-8.65-42.949-11.693-6.128-1.296-11.411-2.07-16.129-2.349-12.073-.707-21.053 1.801-27.419 7.656-6.921 6.344-11.044 14.397-12.151 23.03a38 38 0 0 0 .311 11.87c.624 3.463 1.708 6.946 3.275 10.38 12.693 27.859 38.906 51.56 80.166 72.472 17.448 8.848 36.212 15.711 55.762 20.41l.07.007.245.068c.069.021.138.028.206.05 11.413 2.73 23.089 4.7 34.869 5.924a281 281 0 0 0 24.464 1.46c30.55.463 74.56-1.846 103.889-27.208C-4.222 20.499.461 10.299 0 0m-5.568 36.437C-37.782 64.293-84.557 66.863-116.94 66.35c-19.813-.289-39.523-2.631-58.607-6.945a130 130 0 0 1-3.347-.769 269 269 0 0 1-8.726-2.24 7 7 0 0 1-.532-.153 260 260 0 0 1-10.72-3.192c-13.357-4.294-26.275-9.582-38.561-15.801-43.608-22.11-71.506-47.56-85.285-77.806-9.343-20.503-4.964-43.33 11.166-58.154 8.723-8.011 20.373-11.477 35.657-10.592q1.927.117 3.969.328c4.209.437 8.765 1.192 13.808 2.249 14.895 3.148 29.625 7.613 43.879 11.93 4.954 1.511 9.91 3.009 14.871 4.451a181 181 0 0 1 12.802 4.237l127.468 10.881c4.248.203 8.415.776 12.38 1.679 16.932 3.809 31.189 13.505 41.268 28.004a107 107 0 0 1 5.024 8.006c4.901 8.654 10.889 22.11 11.588 37.011.621 13.756-5.468 27.222-16.73 36.963"
          clip-path="url(#k)" style="fill:#000;fill-opacity:1;fill-rule:nonzero;stroke:none"
          transform="matrix(1.33333 0 0 -1.33333 448.31 114.322)"/>
    <path d="M0 0c-.439-9.159-3.544-19.55-8.798-29.532l-106.457-11.057 1.154-11.115 97.733 10.152c-8.31-10.847-19.603-18.115-32.816-21.102-3.374-.771-6.92-1.238-10.539-1.417l-98.572-8.413c18.328 11.185 28.958 22.947 33.46 28.681 4.987 6.331 9.92 11.562 15.091 15.989 3.946 3.386 7.977 6.347 11.993 8.786 20.699 12.695 35.134 8.915 35.684 8.762L-58.884.456c-.782.227-19.473 5.503-44.702-9.952-4.503-2.742-9.033-6.049-13.442-9.835-5.725-4.906-11.153-10.651-16.585-17.563-5.794-7.356-22.758-25.73-55.47-38.227l-.718-.257a161 161 0 0 0-12.69-4.225c-5.002-1.46-9.998-2.976-14.994-4.492-14.022-4.251-28.52-8.65-42.949-11.693-6.128-1.296-11.411-2.07-16.129-2.349-12.073-.707-21.053 1.801-27.419 7.656-6.921 6.344-11.044 14.397-12.151 23.03 7.818-2.811 20.74-6.355 37.183-6.754 4.842-.114 10.176.046 15.941.645 23.867 2.479 54.9 12.485 87.236 41.316l-7.438 8.341c-29.841-26.62-61.769-39.78-94.891-39.134-18.151.348-31.72 4.99-37.72 7.456.624 3.463 1.708 6.946 3.275 10.38 12.693 27.859 38.906 51.56 80.166 72.472 17.448 8.848 36.212 15.711 55.762 20.41l.07.007c.151.03.301.074.451.118 11.413 2.73 23.089 4.7 34.869 5.924a281 281 0 0 0 24.464 1.46c30.55.463 74.56-1.846 103.889-27.208C-4.222 20.499.461 10.299 0 0"
          clip-path="url(#l)" style="fill:#014421;fill-opacity:1;fill-rule:nonzero;stroke:none"
          transform="matrix(1.33333 0 0 -1.33333 448.31 114.322)"/>
    <path d="M0 0c-32.335-28.831-63.369-38.837-87.235-41.316a125 125 0 0 0-15.942-.645c-16.443.398-29.365 3.943-37.183 6.754-5.135 1.853-8.062 3.403-8.346 3.556l5.254 9.856c.044-.023 1.218-.646 3.404-1.542 5.999-2.466 19.569-7.109 37.719-7.456 33.123-.646 65.05 12.514 94.891 39.134z"
          clip-path="url(#m)" style="fill:#000;fill-opacity:1;fill-rule:nonzero;stroke:none"
          transform="matrix(1.33333 0 0 -1.33333 213.945 157.313)"/>
    <path d="m0 0 1.154-11.114-109.388-11.362-1.155 11.114z" clip-path="url(#n)"
          style="fill:#000;fill-opacity:1;fill-rule:nonzero;stroke:none"
          transform="matrix(1.33333 0 0 -1.33333 440.487 153.292)"/>
    <path d="M0 0a5.6 5.6 0 0 0-2.103-1.117 5 5 0 0 0-.451-.117l-.069-.007A5.59 5.59 0 0 0-7.875.657l-4.946 1.648c.801-2.978-.973-6.041-3.951-6.842a5.575 5.575 0 0 0-6.842 3.952l-1.262 4.713-6.892 25.656a5.59 5.59 0 0 0 2.818 6.401 5.58 5.58 0 0 0 6.852-1.352l20.546-24.35 2.21-2.621C2.657 5.514 2.35 1.985 0 0"
          clip-path="url(#o)" style="fill:#000;fill-opacity:1;fill-rule:nonzero;stroke:none"
          transform="matrix(1.33333 0 0 -1.33333 216.315 49.092)"/>
    <g clip-path="url(#p)" opacity=".2" transform="translate(-1081.226 -815.858)">
        <path d="M0 0c-.439-9.159-3.544-19.55-8.798-29.532l-11.378-1.182c2.204 6.225 3.502 12.384 3.769 18.057.461 10.299-4.221 20.498-12.876 27.983-29.329 25.361-73.338 27.67-103.888 27.207a281 281 0 0 1-24.464-1.46c-11.781-1.223-23.456-3.195-34.869-5.925a5 5 0 0 0-.452-.117l-.069-.007c-19.55-4.699-38.314-11.563-55.762-20.41-11.901-6.024-22.539-12.297-31.97-18.837 12.906 11.212 28.966 21.657 48.376 31.494 17.448 8.848 36.212 15.711 55.762 20.41l.07.007c.151.03.301.074.451.118 11.413 2.73 23.089 4.7 34.869 5.924a281 281 0 0 0 24.464 1.46c30.55.463 74.56-1.846 103.889-27.208C-4.222 20.499.461 10.299 0 0"
              clip-path="url(#q)" style="fill:#fff;fill-opacity:1;fill-rule:nonzero;stroke:none"
              transform="matrix(1.33333 0 0 -1.33333 1529.536 930.18)"/>
    </g>
    <g clip-path="url(#r)" opacity=".2" transform="translate(-1081.226 -815.858)">
        <path d="m0 0-.718-.257a160 160 0 0 0-12.69-4.225 1475 1475 0 0 1-14.994-4.493c-14.022-4.25-28.52-8.649-42.949-11.692-6.128-1.297-11.411-2.07-16.128-2.35-3.281-.186-6.347-.139-9.171.143 3.708.399 7.74 1.057 12.233 2.015 14.427 3.044 28.925 7.442 42.947 11.693 4.996 1.516 9.992 3.032 14.994 4.492A161 161 0 0 1-13.785-.449l.718.257c32.712 12.497 49.676 30.871 55.469 38.227 5.433 6.912 10.86 12.657 16.586 17.563 4.409 3.786 8.938 7.092 13.441 9.835 18.959 11.616 34.219 11.516 40.964 10.658-7.504-1.032-17.097-3.854-27.896-10.466-4.503-2.743-9.033-6.05-13.442-9.835-5.725-4.906-11.153-10.652-16.585-17.563C49.676 30.871 32.712 12.497 0 0"
              clip-path="url(#s)" style="fill:#fff;fill-opacity:1;fill-rule:nonzero;stroke:none"
              transform="matrix(1.33333 0 0 -1.33333 1277.425 1030.34)"/>
    </g>
    <path d="m0 0-8.47-.521c-3.44 8.681-6.35 17.991-8.74 27.92-8.16 33.881-8.24 70.71-.28 106.5 3.87 17.381 8.3 33.201 13.14 47.601l4.35-.63s-.85-9.741-1.51-24.59c-1.358-30.829 3.359-75.789 14.128-107.819 2.187-6.505 1.264-13.648-2.38-19.464C5.831 21.964.585 12.383-.09 5.7-.28 3.81-.28 1.89 0 0"
          clip-path="url(#t)" style="fill:#000;fill-opacity:1;fill-rule:nonzero;stroke:none"
          transform="matrix(1.33333 0 0 -1.33333 73.973 523.632)"/>
    <path d="m0 0 8.47-.521c3.44 8.681 6.35 17.991 8.74 27.92 8.16 33.881 8.24 70.71.28 106.5C13.62 151.28 9.19 167.1 4.35 181.5L0 180.87s.85-9.741 1.51-24.59c1.358-30.829-3.36-75.789-14.128-107.819-2.187-6.505-1.264-13.648 2.38-19.464C-5.831 21.964-.585 12.383.09 5.7.28 3.81.28 1.89 0 0"
          clip-path="url(#u)" style="fill:#000;fill-opacity:1;fill-rule:nonzero;stroke:none"
          transform="matrix(1.33333 0 0 -1.33333 414.906 523.632)"/>
    <path d="M0 0c0-10.512-8.522-19.035-19.034-19.035-10.513 0-19.035 8.523-19.035 19.035s8.522 19.035 19.035 19.035S0 10.513 0 0"
          clip-path="url(#v)" style="fill:#000;fill-opacity:1;fill-rule:nonzero;stroke:none"
          transform="matrix(1.33333 0 0 -1.33333 334.634 281.632)"/>
    <path d="M0 0c0-10.512-8.522-19.035-19.035-19.035S-38.069-10.512-38.069 0s8.522 19.035 19.034 19.035C-8.522 19.035 0 10.513 0 0"
          clip-path="url(#w)" style="fill:#000;fill-opacity:1;fill-rule:nonzero;stroke:none"
          transform="matrix(1.33333 0 0 -1.33333 207.361 281.632)"/>
    <path d="M0 0a5.793 5.793 0 1 0-11.586 0A5.793 5.793 0 0 0 0 0" clip-path="url(#x)"
          style="fill:#fff;fill-opacity:1;fill-rule:nonzero;stroke:none"
          transform="matrix(1.33333 0 0 -1.33333 321.945 275.512)"/>
    <path d="M0 0a3.828 3.828 0 1 0-7.656 0A3.828 3.828 0 0 0 0 0" clip-path="url(#y)"
          style="fill:#fff;fill-opacity:1;fill-rule:nonzero;stroke:none"
          transform="matrix(1.33333 0 0 -1.33333 309.532 291.512)"/>
    <path d="M0 0a2.172 2.172 0 1 0-4.344 0A2.172 2.172 0 0 0 0 0" clip-path="url(#z)"
          style="fill:#fff;fill-opacity:1;fill-rule:nonzero;stroke:none"
          transform="matrix(1.33333 0 0 -1.33333 303.463 280.34)"/>
    <path d="M0 0a5.793 5.793 0 1 1 11.586 0A5.793 5.793 0 0 1 0 0" clip-path="url(#A)"
          style="fill:#fff;fill-opacity:1;fill-rule:nonzero;stroke:none"
          transform="matrix(1.33333 0 0 -1.33333 169.843 275.512)"/>
    <path d="M0 0a3.828 3.828 0 1 1 7.656 0A3.828 3.828 0 0 1 0 0" clip-path="url(#B)"
          style="fill:#fff;fill-opacity:1;fill-rule:nonzero;stroke:none"
          transform="matrix(1.33333 0 0 -1.33333 182.258 291.512)"/>
    <path d="M0 0a2.172 2.172 0 1 1 4.344 0A2.172 2.172 0 0 1 0 0" clip-path="url(#C)"
          style="fill:#fff;fill-opacity:1;fill-rule:nonzero;stroke:none"
          transform="matrix(1.33333 0 0 -1.33333 188.326 280.34)"/>
</svg>